/* XPM */
static char *_a0a2e551e63419fb5546084ffbc143ffOBnlAcwnI16IqiC[] = {
/* columns rows colors chars-per-pixel */
"64 64 225 2 ",
"   c None",
".  c #340304",
"X  c #3A1109",
"o  c #361514",
"O  c #4A0C0C",
"+  c #470907",
"@  c #510A0A",
"#  c #5D0B0B",
"$  c #580505",
"%  c #4A140D",
"&  c #53160D",
"*  c #5E150C",
"=  c #580F14",
"-  c #4A1414",
";  c #4C1E14",
":  c #481519",
">  c #541313",
",  c #5D1615",
"<  c #5D1A14",
"1  c #5C171B",
"2  c #6C0105",
"3  c #67090B",
"4  c #7B0A0F",
"5  c #78040A",
"6  c #630D14",
"7  c #6F0A14",
"8  c #720A13",
"9  c #7A0D14",
"0  c #7A0D18",
"q  c #631414",
"w  c #6B1515",
"e  c #6A1A15",
"r  c #661319",
"t  c #6C151C",
"y  c #651B1B",
"u  c #6C1B1A",
"i  c #631C16",
"p  c #731414",
"a  c #7D1316",
"s  c #74151A",
"d  c #7B1419",
"f  c #76181A",
"g  c #7A1D1D",
"h  c #781914",
"j  c #69120D",
"k  c #452216",
"l  c #532118",
"z  c #5C2D1E",
"x  c #57281A",
"c  c #63231C",
"v  c #6D231C",
"b  c #62281B",
"n  c #76251E",
"m  c #5F1C28",
"M  c #6E1D23",
"N  c #6B1D26",
"B  c #731822",
"V  c #7B1B26",
"C  c #4E2523",
"Z  c #5A2B28",
"A  c #4E2C30",
"S  c #533B36",
"D  c #4D3B29",
"F  c #642324",
"G  c #6B2624",
"H  c #632D2C",
"J  c #662729",
"K  c #732623",
"L  c #7C2424",
"P  c #7C2925",
"I  c #7D2329",
"U  c #7D2B2C",
"Y  c #752829",
"T  c #6A332D",
"R  c #642C32",
"E  c #742631",
"W  c #7F2C31",
"Q  c #643936",
"!  c #7B3334",
"~  c #763835",
"^  c #753826",
"/  c #5D4037",
"(  c #674338",
")  c #7D4339",
"_  c #713840",
"`  c #6A4D47",
"'  c #784848",
"]  c #775944",
"[  c #745752",
"{  c #6F4F4E",
"}  c #79635D",
"|  c #7E6961",
" . c #8C0F19",
".. c #84131B",
"X. c #8C131B",
"o. c #82181C",
"O. c #92121A",
"+. c #8F0B16",
"@. c #A6051B",
"#. c #880E20",
"$. c #841D23",
"%. c #8B1B22",
"&. c #861926",
"*. c #951D25",
"=. c #921A27",
"-. c #8B1F30",
";. c #A61728",
":. c #A41F31",
">. c #832423",
",. c #8B2125",
"<. c #84242A",
"1. c #8A292E",
"2. c #8C242D",
"3. c #91212C",
"4. c #9B222B",
"5. c #94292D",
"6. c #932127",
"7. c #84352F",
"8. c #89312E",
"9. c #852C34",
"0. c #8F2B33",
"q. c #932434",
"w. c #932C33",
"e. c #9B2C32",
"r. c #9B2634",
"t. c #823D35",
"y. c #8C3935",
"u. c #873637",
"i. c #943535",
"p. c #9C323B",
"a. c #923A3C",
"s. c #9E3A3D",
"d. c #983239",
"f. c #A32532",
"g. c #A32B32",
"h. c #A92537",
"j. c #B62A3B",
"k. c #A83137",
"l. c #A4343B",
"z. c #AD343D",
"x. c #A5373A",
"c. c #B1343E",
"v. c #B1292F",
"b. c #C01F34",
"n. c #C02235",
"m. c #89463D",
"M. c #A7423C",
"N. c #983943",
"B. c #8B3241",
"V. c #BB2E42",
"C. c #AB3A43",
"Z. c #A53A46",
"A. c #BB3C46",
"S. c #BE3C49",
"D. c #B63948",
"F. c #C83B4C",
"G. c #D5334C",
"H. c #E43751",
"J. c #884A45",
"K. c #9A4244",
"L. c #974746",
"P. c #885549",
"I. c #97544D",
"U. c #825859",
"Y. c #98535A",
"T. c #A44B4A",
"R. c #A8464A",
"E. c #B24B4C",
"W. c #B7464A",
"Q. c #AB4E55",
"!. c #B24D52",
"~. c #BD4854",
"^. c #AD5452",
"/. c #A75657",
"(. c #B75758",
"). c #8B6457",
"_. c #B3635D",
"`. c #845E60",
"'. c #B85963",
"]. c #AB5B60",
"[. c #957467",
"{. c #8C726F",
"}. c #B46563",
"|. c #BA6965",
" X c #AC756A",
".X c #BA6B72",
"XX c #B0756A",
"oX c #C64A54",
"OX c #D7475A",
"+X c #C5575B",
"@X c #C94147",
"#X c #C1625F",
"$X c #CC5660",
"%X c #CA5C6B",
"&X c #DC5A64",
"*X c #E65169",
"=X c #C56264",
"-X c #CB6B6B",
";X c #C8686B",
":X c #D16F6E",
">X c #D76871",
",X c #C67877",
"<X c #D87477",
"1X c #E2656E",
"2X c #EC6D7A",
"3X c #F06270",
"4X c #E5757D",
"5X c #AE806D",
"6X c #B3806D",
"7X c #A98477",
"8X c #B68372",
"9X c #C5837B",
"0X c #D3837F",
"qX c #CF7C80",
"wX c #DC7980",
"eX c #E87A82",
"rX c #A98989",
"tX c #B19991",
"yX c #A0A69F",
"uX c #DE8788",
"iX c #CE8A82",
"pX c #E98387",
"aX c #F0848E",
"sX c #F59295",
"dX c #CDB4B5",
/* pixels */
"                                                                                                                                ",
"                                                                                                                                ",
"                                                                                                                                ",
"                                                                                                                                ",
"                                                                                                                                ",
"                                                                                                                                ",
"                                                                                                                                ",
"                                                                                                                                ",
"                                                                                                                                ",
"                                                                                                                                ",
"                                                                                                                                ",
"                                                                                                                                ",
"                                                                                                                                ",
"                                                                                                                                ",
"                                                                                                                                ",
"                                                                                                                                ",
"                                                                                                                                ",
"                                                                                                                                ",
"                                                      tX} `.| | [.' C U.U.                                                      ",
"                                                  U.Q ~ + O K U ! q /.W N ~ R {                                                 ",
"                                            dXQ _ E B Z...=.V.O.>.(.4Xw.2.-.B.m o {.                                            ",
"                                            a.5.9X|.F.;.] oXO.l.3X!.P f.f w.$., s 9.[                                           ",
"                                        J.k 5.z.7.=X@X+.7XA.+.<X&Xe.8.i.z c 3 U E.D.6 H tX                                      ",
"                                      J 9.3 w.eXs.5 g.>.T *.4 T.+X..f e ] ~ 4.i.;X0 ~.R.; 7X                                    ",
"                                    $.W.l.o.Y i T.z.+ [.XXU u J.sX4.2 oXT.3.*XU P.).( w.p.t                                     ",
"                                  <.O.A.1XF.k.$.aXOXj 8X2Xs.a.>XoX>.L <XL <Xa.# w.pX,Xx.*.z.F                                   ",
"                                Z 0.h.4.<X+X2 :X=X%.>  XF.K |.6.2 # I.|.i.sXc # 5 X.(.W.2 <.G '                                 ",
"                                Z 0...f |.8._./.i & P.I.j.z XX4 ,.w (.u (.}.& P ~.5.a ,.e i M N }                               ",
"                              ` ~ K.V , m.%.C.%.3 }.-XA.H.i.;XG.K r.:.p.f.4.$.i.P.z v e L.q L u.C                               ",
"                              ~ U K.K.}.! i.6 L.i.I.K.4 c.7.u =XT 8 &.c # # * a |.uXb.t.(...f 1 - '                             ",
"                              t Z.s r .X].6.q 9X-X@ i.5 p s.e l G Q.p.J.1.I.P.R.R.e.n.t.N.r.=.t y H                             ",
"                              -.h.N..XN = ;.n ,XoX,.%.z.e %.q X qXQ.R.wX*XR.Q >.>.^.^.<.N.<Xj.j.V /                             ",
"                              > l.aX:XK + -X=X# m.N.>Xq.@ q c k -X$.3 ~ T ~ T.^.}.$Xj.>.#Xe.3 V m A                             ",
"                              O ..oXW.3 |.:X#XE.C.B r 9.D.s.p a f p L 2.aXL.) J.s d $.$ P 1.N.N :                               ",
"                              F !.4.k.s T.O.a (.4XU q '.S.2 g.&Xi.v 8.g.1X-XiX,X<.$ Y y K q Y R rX                              ",
"                              : uXW.k.C.9 H.j.< k G 3.9 x.z.oXpX8X^ ^.p 5.z.c.8 g $.p.T.> @ + [.                                ",
"                              A O E.e.+Xp.7.j.v.f y.b 5X6X+XE.* M.v.@X5.$ 4  .$.l ; & o.f r .                                   ",
"                                X a.f <.Z.1.U * ! 7.T.-Xv n t.& * h 4  .~.pX0Xt.$ 9 =.*.C.9.Z                                   ",
"                                ( T L.r 6 I ( D J.y.eX2XV., - G _.m.y.g.r.P x % ,.;.j.V.#.B.Z                                   ",
"                                  ` o R `.      3 w.!.eXOXV.4.%XG.;.< % l c g *.e.P Z ..r.E [                                   ",
"                                                  O q.#.I 3.q.1 o > d.7 y u.t % < 3 @.p.t.Z                                     ",
"                                                      H - . H `   Q ! '.I $ V Y 7.d.S.F Z                                       ",
"                                                                    S Y.%X8 7 # w u z                                           ",
"                                                                      S ,X/.@ rXyX                                              ",
"                                                                        F Y.1                                                   ",
"                                                                        U.: '                                                   ",
"                                                                                                                                ",
"                                                                                                                                ",
"                                                                                                                                ",
"                                                                                                                                ",
"                                                                                                                                ",
"                                                                                                                                ",
"                                                                                                                                ",
"                                                                                                                                ",
"                                                                                                                                ",
"                                                                                                                                ",
"                                                                                                                                ",
"                                                                                                                                ",
"                                                                                                                                ",
"                                                                                                                                ",
"                                                                                                                                ",
"                                                                                                                                ",
"                                                                                                                                ",
"                                                                                                                                "
};
