/* XPM */
static char *_0aab5957e704639e2ff6d5007338ddch4qaiuNqkpYiNInU[] = {
/* columns rows colors chars-per-pixel */
"64 64 207 2 ",
"   c None",
".  c #2C1F0F",
"X  c #2C1D18",
"o  c #321F1B",
"O  c #2E221C",
"+  c #2E2516",
"@  c #35251D",
"#  c #39251A",
"$  c #2E2422",
"%  c #332523",
"&  c #3B2623",
"*  c #3B2B24",
"=  c #362B29",
"-  c #3C2E2A",
";  c #302826",
":  c #2F3F2F",
">  c #2C3B31",
",  c #3E3433",
"<  c #333B35",
"1  c #3A3A35",
"2  c #3A3D3B",
"3  c #43261C",
"4  c #482C1E",
"5  c #442C23",
"6  c #442D2B",
"7  c #4A2D26",
"8  c #4A3326",
"9  c #43332C",
"0  c #4A332C",
"q  c #4B392F",
"w  c #52362C",
"e  c #55392C",
"r  c #433534",
"t  c #4C3533",
"y  c #453B33",
"u  c #4D3B35",
"i  c #44363A",
"p  c #443D3A",
"a  c #4F3D3A",
"s  c #523633",
"d  c #533C35",
"f  c #593C35",
"g  c #543D3A",
"h  c #593D39",
"j  c #633F33",
"k  c #2E4234",
"l  c #314334",
"z  c #364439",
"x  c #3C423E",
"c  c #3A4C3D",
"v  c #37493B",
"b  c #44423B",
"n  c #49463E",
"m  c #534036",
"M  c #594336",
"N  c #54403C",
"B  c #5C453C",
"V  c #5F493C",
"C  c #644A3D",
"Z  c #694C3B",
"A  c #614539",
"S  c #70493A",
"D  c #3F3D42",
"F  c #443F43",
"G  c #3D4241",
"H  c #3E4F45",
"J  c #3F5247",
"K  c #444442",
"L  c #434B45",
"P  c #4B4B44",
"I  c #464C49",
"U  c #4C4C4C",
"Y  c #49464B",
"T  c #534D43",
"R  c #514E4D",
"E  c #524340",
"W  c #445146",
"Q  c #45554D",
"!  c #4C524D",
"~  c #495A4C",
"^  c #455549",
"/  c #51514D",
"(  c #5B564A",
")  c #5B5D4D",
"_  c #4D4D51",
"`  c #524D53",
"'  c #544E58",
"]  c #4C5451",
"[  c #4B5E52",
"{  c #525254",
"}  c #555359",
"|  c #5B545B",
" . c #5B5A5C",
".. c #575C55",
"X. c #694E47",
"o. c #6D5449",
"O. c #685144",
"+. c #715345",
"@. c #74574C",
"#. c #71594E",
"$. c #7A5948",
"%. c #635C52",
"&. c #765C52",
"*. c #7E5C50",
"=. c #4A614E",
"-. c #5B674C",
";. c #4E6154",
":. c #56685A",
">. c #68685B",
",. c #7D6154",
"<. c #7B6559",
"1. c #7C695D",
"2. c #776052",
"3. c #6C745D",
"4. c #5A6D62",
"5. c #696969",
"6. c #756F63",
"7. c #7A6760",
"8. c #66736A",
"9. c #6C786C",
"0. c #7A746A",
"q. c #77796C",
"w. c #6D6C72",
"e. c #706B71",
"r. c #727675",
"t. c #856D5F",
"y. c #8B6E5B",
"u. c #876D60",
"i. c #8C7365",
"p. c #84776C",
"a. c #8E786B",
"s. c #917564",
"d. c #957C6C",
"f. c #997E6D",
"g. c #8C7A71",
"h. c #937F73",
"j. c #997E71",
"k. c #7C896E",
"l. c #77917C",
"z. c #748676",
"x. c #8D8676",
"c. c #9E8372",
"v. c #958379",
"b. c #9A8479",
"n. c #9D8F7E",
"m. c #9A8B79",
"M. c #89957C",
"N. c #94977C",
"B. c #9A977C",
"V. c #929A7B",
"C. c #9C9B7D",
"Z. c #949377",
"A. c #A38474",
"S. c #A68D76",
"D. c #A88B75",
"F. c #A68C7C",
"G. c #AD8E7C",
"H. c #A28678",
"J. c #B28E7A",
"K. c #A69377",
"L. c #AD9276",
"P. c #A4927C",
"I. c #AC947C",
"U. c #A39A7D",
"Y. c #AA997D",
"T. c #B2937D",
"R. c #B1987E",
"E. c #97A07E",
"W. c #818D81",
"Q. c #9E8A80",
"!. c #8C9384",
"~. c #849988",
"^. c #9B9C82",
"/. c #979787",
"(. c #8D9A91",
"). c #979A91",
"_. c #A18E82",
"`. c #AD8F84",
"'. c #A59485",
"]. c #AD9481",
"[. c #A39D83",
"{. c #AB9B83",
"}. c #A49C8D",
"|. c #A99B8B",
" X c #B29482",
".X c #B49A84",
"XX c #BA9C87",
"oX c #B59A89",
"OX c #BA9D8A",
"+X c #BB9683",
"@X c #84A08D",
"#X c #9CA285",
"$X c #9BA687",
"%X c #8EA694",
"&X c #91A699",
"*X c #9CA59D",
"=X c #93AB99",
"-X c #A2A285",
";X c #ABA183",
":X c #A6A38A",
">X c #ACA38C",
",X c #AAA59C",
"<X c #B1A49B",
"1X c #B4AFA9",
"2X c #ACB1AB",
"3X c #B3B4AE",
"4X c #B1B8B1",
/* pixels */
"                                                                                                                                ",
"                                                                                                                                ",
"                                                                                                                                ",
"                                                                                                                                ",
"                                                                                                                                ",
"                                                                                                                                ",
"                                                                                                                                ",
"                                                                                                                                ",
"                                                                                                                                ",
"                                                                                      ~.=X~.                                    ",
"                                                                                      :.8.:.v                                   ",
"                                                                                    L W I z <                                   ",
"                                                                                  ~ ! ..! L G I                                 ",
"                                                                                c W ! U U } _ x >                               ",
"                                                                                ~ ! / U ` ' ` G k                               ",
"                                                                                  ! U R } F D                                   ",
"                                                                                    ! ! { G 2                                   ",
"                                                                                =.~ ! ! U L 2 z                                 ",
"                                                                            l.l.~ L ! { U ] ! G >                               ",
"                                                                            =.~.8.! U { _ ] ] ! z z                             ",
"                                                                            J 8.r.{ Y ` { { U ! ] > l                           ",
"                                                                          Q ] G } _ ` ` ` _ U { U x z                           ",
"                                                                          Q ] 5.} ` | } U U U ] { x >                           ",
"                                                                        ^ Q ] w.5.` ` ` U { ] U _ U < W                         ",
"                                                                        [ Q _ } e.| U U ] U I ! ' Y < c                         ",
"                                                                        J ] U D }  .R K U U G G ` U < v                         ",
"                                                                        ;.] 2 Y K  ./ b U U 2 G ` U < v                         ",
"                                                                        H ] _ 2 K { U K ! U G U ` _ < l                         ",
"                                                                        Q L { ` Y U P P U U U ` ` U < k                         ",
"                                                                      =X!  .U U U U ! U U { { _ { U z l                         ",
"                                                                    :.4.] U } ` R R / / U { ' _ U L z k                         ",
"                                                                    ~ :.] I R R R U P ! / U U _ K 2 < :                         ",
"                                                                    z.W...1 p b b P n b K b 2 2 1 P 5.  9.                      ",
"                                                  c ^           M.M.!.q.( %.0.p.>.T ( %.T y b n T 6.0.>.>.                      ",
"                                              =X%X8.:.*X/.-.#XE.[.[.n.p.1.g.Q.b.v._.'._.Q.b.h.g.v.x.6.) )                       ",
"                                              @X&X*X2X)./.^.[.U.{.'.h.&.h w d h d B B B o.#.#.<.<.1.m.x.3.                      ",
"                                              &X(.4X3X/.}.{.{.S.f.,.B s s t 6 6 t 6 0 0 5 5 0 5 w @.n.^.#X                      ",
"                                              !.).,X1X}.|.F.s.,.f f d g t r r t 6 9 q q 0 0 0 0 *. X{.B.                        ",
"                                          N.^.}.}.<X<XQ.Q.1.w w d d g a i r i r p r * 9 q 9 B i.G.].P.                          ",
"                                      M.^.[.P.{.'.'.v.7.B s B d d g N a r , r , , 9 y 9 5 B a.oXoXP.                            ",
"                                  k.^.[.P.{..X].b.<.B g m g g h s d m g r r r 9 9 9 8 8 Z c.].].P.>X                            ",
"                                V.C.[.Y.{. XA.i.O.M q u g g d d d f m u 9 9 9 q 8 w 4 Z D.G. XI.>X                              ",
"                            $XV.{.Y.Y.I.F.s.o.s d u u m N m d g g g u 9 - * * 5 3 7 +.D. XXXI.{.                                ",
"                          M.:XU.I.L.D.s.+.d t g g N N g g g d g g u & O % % @ # 3 +.G.T.oXP.P.:X                                ",
"                        N.>X[.{.I.y.Z f f g g N g g g a u g g u 9 - $ % = % o & @.`. X.XP.|.[.                                  ",
"                      N.>X{.F.f.+.A s s g a a g g g g g g u r - $ $ ; = $ X q #.`.].oXP.[.[.                                    ",
"                    ^.:Xm.y.$.f g u u a E N g g h f f s t - ; O % % @ O O u u.]. XT.I.K.U.                                      ",
"                    #X[.d.$.S j M N a u u u g d f d s 7 & % $ ; O @ @ @ M f.XXT.T.L.I.;X                                        ",
"                    $XB.Y.T.J.A.A.i.t.2.O.C M f 0 5 & % % % ; $ O + # M c.T.+XT.T.I.U.C.                                        ",
"                      -X{.I.G.T.D.XXI.S.].F.d.u.&.X.d 6 & & % % * . e f. XXXJ.T.K.U.^.                                          ",
"                        :X[.{.I..XI.I.XXI.I.XXG. X X].F.j.t.o.V 8 M j. X XG.R.{.U.-X                                            ",
"                          V.Z.[.Y.Y.K.I.R.I.I.XXT.T.I.R. X X X].A.H.oXI.OXY.{.U.C.                                              ",
"                                C.U.;XU.Y.{.S.K.I.I.I.R..XR.R.I.].OXI.].P.[.-X                                                  ",
"                                    N.#XB.[.C.;X[.Y.Y.Y.K.I.Y.Y.Y.{.P.[.[.N.                                                    ",
"                                              V.^.^.^.C.C.C.C.C.[.Z.#X#X                                                        ",
"                                                                                                                                ",
"                                                                                                                                ",
"                                                                                                                                ",
"                                                                                                                                ",
"                                                                                                                                ",
"                                                                                                                                ",
"                                                                                                                                ",
"                                                                                                                                ",
"                                                                                                                                "
};
