/* XPM */
static char *_c0538b4cda94095bbda4cc1c18b21d1nzPVEjDn9xSbI33t[] = {
/* columns rows colors chars-per-pixel */
"64 64 235 2 ",
"   c None",
".  c #030B0D",
"X  c #0B0D0E",
"o  c #05030C",
"O  c #060B13",
"+  c #0B0D13",
"@  c #0B0D1A",
"#  c #040614",
"$  c #041514",
"%  c #0C1315",
"&  c #0D131B",
"*  c #0B1B1B",
"=  c #051617",
"-  c #121316",
";  c #14151B",
":  c #15191B",
">  c #1A1A1D",
",  c #141915",
"<  c #111015",
"1  c #380606",
"2  c #2A1A04",
"3  c #391618",
"4  c #261113",
"5  c #0B211F",
"6  c #17231D",
"7  c #3B2619",
"8  c #20251F",
"9  c #0C0E22",
"0  c #0D1224",
"q  c #0D1A27",
"w  c #131523",
"e  c #141A24",
"r  c #1B1C23",
"t  c #14162A",
"y  c #151B2C",
"u  c #1B1D2C",
"i  c #191424",
"p  c #1A1D32",
"a  c #171B33",
"s  c #211F24",
"d  c #201D32",
"f  c #1C2224",
"g  c #1C222C",
"h  c #192826",
"j  c #1D2133",
"k  c #1D243B",
"l  c #1C2A39",
"z  c #1F3329",
"x  c #24252B",
"c  c #242B2E",
"v  c #292A2C",
"b  c #212325",
"n  c #37222B",
"m  c #3A332B",
"M  c #232433",
"N  c #242B34",
"B  c #2B2C34",
"V  c #23243A",
"C  c #252B3A",
"Z  c #2A2C3D",
"A  c #28243D",
"S  c #352B3A",
"D  c #2D3233",
"F  c #24323B",
"G  c #2C323C",
"H  c #2C3C3C",
"J  c #283534",
"K  c #34353B",
"L  c #343A3C",
"P  c #373737",
"I  c #26302F",
"U  c #42080B",
"Y  c #441714",
"T  c #521219",
"R  c #422A1E",
"E  c #453934",
"W  c #4C3528",
"Q  c #633E3A",
"!  c #3C413E",
"~  c #44443F",
"^  c #554532",
"/  c #6C4B3C",
"(  c #2C2D43",
")  c #282B45",
"_  c #342F45",
"`  c #2C3145",
"'  c #2D3449",
"]  c #283342",
"[  c #333443",
"{  c #363A44",
"}  c #3A3B43",
"|  c #32344B",
" . c #353A4B",
".. c #3B3C4C",
"X. c #3A3546",
"o. c #343B51",
"O. c #3A3957",
"+. c #493D41",
"@. c #2C4746",
"#. c #3A434C",
"$. c #3C4C4B",
"%. c #384546",
"&. c #37524B",
"*. c #3E4B51",
"=. c #3C4257",
"-. c #3E5751",
";. c #424B4B",
":. c #444749",
">. c #58584A",
",. c #444359",
"<. c #444755",
"1. c #554F55",
"2. c #485856",
"3. c #565958",
"4. c #544943",
"5. c #754B45",
"6. c #635B43",
"7. c #675E59",
"8. c #765F56",
"9. c #684B47",
"0. c #556259",
"q. c #49625E",
"w. c #69655B",
"e. c #766458",
"r. c #756B51",
"t. c #464963",
"y. c #4D5962",
"u. c #565A6C",
"i. c #665960",
"p. c #4C6864",
"a. c #596767",
"s. c #56716B",
"d. c #5E6372",
"f. c #587972",
"g. c #4C7169",
"h. c #6C6D6C",
"j. c #646765",
"k. c #726C68",
"l. c #6A746B",
"z. c #64756D",
"x. c #797669",
"c. c #626878",
"v. c #6B7B75",
"b. c #6A7C7C",
"n. c #657875",
"m. c #727471",
"M. c #797A78",
"N. c #805E5D",
"B. c #876E67",
"V. c #867565",
"C. c #867977",
"Z. c #957C76",
"A. c #937F67",
"S. c #6A847C",
"D. c #73847D",
"F. c #78857B",
"G. c #97847B",
"H. c #8F8878",
"J. c #A6867B",
"K. c #727A87",
"L. c #686D80",
"P. c #837E82",
"I. c #6C8982",
"U. c #7C8B84",
"Y. c #778986",
"T. c #74918A",
"R. c #7C948C",
"E. c #779086",
"W. c #7C9792",
"Q. c #7D8091",
"!. c #7FA397",
"~. c #848A87",
"^. c #948C86",
"/. c #89938B",
"(. c #96968B",
"). c #8A9694",
"_. c #839B93",
"`. c #8C9E9B",
"'. c #879A96",
"]. c #959D9D",
"[. c #979994",
"{. c #888E9E",
"}. c #A79687",
"|. c #A89C98",
" X c #B39998",
".X c #8CA49C",
"XX c #87A398",
"oX c #92A49B",
"OX c #99A69A",
"+X c #AAA39A",
"@X c #A6A799",
"#X c #BAB39C",
"$X c #B0A494",
"%X c #949FA1",
"&X c #88A9A3",
"*X c #93ABA4",
"=X c #9BADA4",
"-X c #99AAA5",
";X c #8CB3A8",
":X c #95B4AC",
">X c #9DB4AC",
",X c #99B4A8",
"<X c #9CB8B2",
"1X c #A3A6A4",
"2X c #A8AAA5",
"3X c #A3B4AD",
"4X c #A9B5AC",
"5X c #B6B5A9",
"6X c #A5B6B1",
"7X c #A3BBB5",
"8X c #ACB6B6",
"9X c #B7BDB7",
"0X c #A9AFBF",
"qX c #C0B5AC",
"wX c #C5BAB6",
"eX c #CDB6AF",
"rX c #9EC1BA",
"tX c #AAC4BA",
"yX c #B3C3BB",
"uX c #BAC3B8",
"iX c #C5C3B5",
"pX c #C6C1AB",
"aX c #ACCAC4",
"sX c #B7CBC6",
"dX c #BBD4CB",
"fX c #B9D3C8",
"gX c #BED6D3",
"hX c #C5CDC4",
"jX c #C6D2CB",
"kX c #D5D6CE",
"lX c #C8D0CF",
"zX c #E0D9D3",
"xX c #C3E4DD",
"cX c #F8FAFF",
"vX c #F0EEFF",
/* pixels */
"                                                                                                                                ",
"                                                                                                                                ",
"                                                                                                                                ",
"                                                                                                                                ",
"                                                    * * * 5 5 $ * = h $ 6 6                                                     ",
"                                              O * f `.W.I.T.I.W.W.S.S._.D.).f X r                                               ",
"                                          J : Y.).D.sXaXsXsXgXtXaXdXaX4X[.l.1.3.$.* c                                           ",
"                                        : H U.8XdXsXjXsXdXgX<X:X7X3X6X-Xm.a.l.U.a.$.& :                                         ",
"                                        ;.U.fXyXyXsXjXsXdX6X`.D.oX4XoXE.R.E.R.Y.a.2.%.N % K                                     ",
"                                        z XX6X=XU.D.yXyX9X>XR.n.M./.3X_.*X,X*X,X*Xb.p.%.{ +                                     ",
"                                    ! z oX.XE.,XtXoX4X9X-Xv.a.p.W.XX.X*X3X=X>XtX'.T.p.$.H =                                     ",
"                                    % n.fXfXdXtX=XoXOXoXv.2.n..X;X;XT.S.'.jX6X'.I.2.p.*.J =                                     ",
"                                    % 6XtXgXtXtXoXD.U.v.a.'.7XaX<XaXXXR.*X8X9X].2X~.;.g N                                       ",
"                                    f v.sXfXtXtX>X.XD.D.E.tXgXaXxXrX:Xs._.*X].~.j.L e e cX                                      ",
"                                    f H S.:X<XI._.=Xn.Y.`.*X:X&X;XrX;Xg.T.<X<XS.s.p.%.g % :.                                    ",
"                                    H H _.f.&.XX.XfX7XR.-.%.p.n.@.&.@.S.XX!.f.g.p.g.2.%.% s                                     ",
"                                    $ 7X<X<Xq.*XtX*X<X:XT.2.).8X0.$.2.s.T.f.p.f.f.W.&.*                                         ",
"                                    = .Xn.$.a.'.`.E..X,X,X2.3.~ w.0.l.z.XX>X&Xf.I.b.2.$                                         ",
"                                    r 4X].~.j.2XuXl.F.OX9X^.G.e.+X+X(./.M./.Y.v.n.a.2.O                                         ",
"                                    - 1X2X5XM.+X5Xx.(.(.H.}.}.G.B.Z.C.k.7.3.3.n.a.%.N &                                         ",
"                                        |.^.4.|.5Xx.#Xr.7 }.J.5.R 7.G.7.k.1.3.:.& @ e                                           ",
"                                        [.C.E e.V.2 V.r.2 A./ 2 ^ m m 7.j.3.B ; e cXcXcX                                        ",
"                                        2X[.E w.>.2 6.6.W ^ W r.9X~.>.~.3.#.w u w w M cX                                        ",
"                                        1Xm.2X5X@Xw.$XpX#X}.$X5XOXoXY.2.2.F F j p y w u                                         ",
"                                          f 9X1X5X5X9XiXiXiX+X1Xv.T.s.@.l l ] ] C ' w w                                         ",
"                                          O % %.F.l.F.x.k.M.h.j.2.@.@.F q l =.) o.t. .w ; s                                     ",
"                                        & C #.I D P k.M.w.3.} { C l ' o.k ' t.| |  .u.<.e v                                     ",
"                                        Z ..y J 1.(.wXqXC.+.S X.( ( p k ( ) ) | ,.( [ u w ; -                                   ",
"                                    & i ,.Z Z G m.kXwXG.9.4 n X.M ( ) ) ) a a ( 9 ( C ..B e +                                   ",
"                                    r S d M  .n.1XzX}.e.9.3 n S _ V _ ,.( V V 0 ( .. .[ N # M                                   ",
"                                    i X.M C M ].hXwXG.8.Q 3 3 n S j ) | p t j 0 y j N [ C M @ r L                               ",
"                                    @  .u A N ~.@XH.B./ 1 3 Q C.M C p j ` V y u C t ..M V M @ ; >                               ",
"                                    0 o.| ) u P 3.qXQ 1 U 1 N.wX..a y  .C C j 0 p w | j C g w ; ;                               ",
"                                  J l ) ) p M B j.iXW U T U W k.M =. .V C t w  .0 p Z  .u u g r r                               ",
"                                  & #.=.) A w B h.kXB.Q U 1 7 m } V  .N g j Z 0 a ( O.| Z p y @ ;                               ",
"                              L ].;.*.M t | p u K m.B.5.Y Y E E D d.d.N M y N c.L.=.` V ( 9 t t P                               ",
"                              .   ).L L O u vXN g v Z.Z.5.Y 4 m h.1X8XM.D I j.lX0X<.N C M w u                                   ",
"                            X     8XU.D.B cXcXu N > qXeXJ.B.7.h.9XhXkXjX/.U.).=X%XY.Y.d.w & r                                   ",
"                        D   h.m.~.~.2.  %.O [ B ;.D wXeX X XM.1.(.@X@X4X2XoX/.U.U.).K.2.. K                                     ",
"                        r     M.%.8 D     x x x : b 2XwX^.i.B D 1.P ~ ~ ;.a.3X`.`.a.2.%.f :                                     ",
"                        P v :.j.3.,       x m.~.U.2X(.P.1.S M { x v K g N H 2.a.y.b.*.G e x                                     ",
"                            - ! X 6       v 9XhXuX=Xj.K M V ` t A [ { { G [ F f F F e N                                         ",
"                            + r v         x @X[./.$.c G | y ( ) ( | ,.Q.c.*.N = = & g                                           ",
"                                          ; :.j.c c C j k ` =.( =.t.d.{.y.t g y q                                               ",
"                                          e u { M N V ' ) k j =.' K.0X0Xd.y g . y                                               ",
"                                        o ..,...V o.` k k ' k  .' u.K.c.#.w C w +                                               ",
"                                        X.X.O.O.O.) ) a y j p o.' '  . .` j u w w M                                             ",
"                                        d ..O.O.t.a k y 0 0 p ) o.=.' j 0 C y t 0 w w                                           ",
"                                        M <.( O.V V 9 y w  .u w #.g <.j j t u p ( t w                                           ",
"                                        r N [ t t p j M # w w K O e u u j Z w p t w w e                                         ",
"                                        + N t N Z u u u u u & w B g @ & G u ( u V u @ e - :                                     ",
"                                          N u u [ M M w u t & & g       O g Z N M g N w e r r                                   ",
"                                              e [ u g @ w & w r ;       B u M M [ u u w B + r                                   ",
"                                            g M ..x M u B r ; ; c     x O M w w u g e w ; - -                                   ",
"                                          x ; K K K :.} B r - : ;   : c } r M N N x u ; - r +                                   ",
"                                          > v v K P K b r x r ; f   % D } } B } } B B r v ; >                                   ",
"                                          : r x - x ; ; - - - -     > D B b v K K r B v x ; ;                                   ",
"                                          L > - : ; b . v : X       : > f ; b : + x r ; > ; ;                                   ",
"                                                                    ! > X X r r + r o r ;                                       ",
"                                                                                                                                ",
"                                                                                                                                ",
"                                                                                                                                ",
"                                                                                                                                ",
"                                                                                                                                "
};
