/* XPM */
static char *_5c933462a984ac0e7d9febbd2dea116s5RYqSgEDgOsii9I_1[] = {
/* columns rows colors chars-per-pixel */
"64 64 192 2 ",
"   c None",
".  c #141517",
"X  c #161616",
"o  c #11131D",
"O  c #11131E",
"+  c #11131F",
"@  c #14151C",
"#  c #17181E",
"$  c #380505",
"%  c #390E18",
"&  c #3A191A",
"*  c #121421",
"=  c #131522",
"-  c #131623",
";  c #141520",
":  c #141720",
">  c #171B22",
",  c #161826",
"<  c #161928",
"1  c #171A29",
"2  c #191B28",
"3  c #191C2D",
"4  c #1A1E2C",
"5  c #1B1E31",
"6  c #1C212B",
"7  c #1D2033",
"8  c #1E2135",
"9  c #1D2833",
"0  c #1F2338",
"q  c #1E2939",
"w  c #252525",
"e  c #272729",
"r  c gray17",
"t  c #252737",
"y  c #22253C",
"u  c #22263D",
"i  c #24293E",
"p  c #23303F",
"a  c #28363F",
"s  c #353536",
"d  c #31313C",
"f  c gray23",
"g  c #540202",
"h  c #5B0000",
"j  c #550908",
"k  c #620201",
"l  c #6C0000",
"z  c #472724",
"x  c #5A2828",
"c  c #533530",
"v  c #6A352F",
"b  c #6B521C",
"n  c #544634",
"m  c #6E4E33",
"M  c #684839",
"N  c #75573C",
"B  c #232740",
"V  c #252942",
"C  c #262B43",
"Z  c #282D46",
"A  c #282D4A",
"S  c #292E4A",
"D  c #233744",
"F  c #263846",
"G  c #243C47",
"H  c #2C314E",
"J  c #373A48",
"K  c #2E3352",
"L  c #2B3B53",
"P  c #2F3E57",
"I  c #323755",
"U  c #303656",
"Y  c #353A59",
"T  c #343A5D",
"R  c #363C60",
"E  c #383E61",
"W  c #4C3A47",
"Q  c #683D44",
"!  c #25454D",
"~  c #27454C",
"^  c #29424F",
"/  c #3A414F",
"(  c #2A4250",
")  c #2B4855",
"_  c #2B4C54",
"`  c #334A51",
"'  c #384855",
"]  c #2D525B",
"[  c #35565C",
"{  c #37595D",
"}  c #344962",
"|  c #3A4865",
" . c #355B64",
".. c #3C646A",
"X. c #454647",
"o. c #4A4D4A",
"O. c #574749",
"+. c #56564C",
"@. c #585857",
"#. c #70524E",
"$. c #666657",
"%. c #776C51",
"&. c #4D5766",
"*. c #46676A",
"=. c #5A6768",
"-. c #466D72",
";. c #4C7375",
":. c #577172",
">. c #567978",
",. c #686A67",
"<. c #6C6F6F",
"1. c #78766A",
"2. c #6B7676",
"3. c #667977",
"4. c #787C75",
"5. c #8A6732",
"6. c #8E5450",
"7. c #AA5855",
"8. c #8F6F55",
"9. c #AE6B5B",
"0. c #996A64",
"q. c #8E766D",
"w. c #AA756D",
"e. c #5C827E",
"r. c #66847D",
"t. c #8B8B5D",
"y. c #A48954",
"u. c #898965",
"i. c #948A6B",
"p. c #86867A",
"a. c #978778",
"s. c #9B9977",
"d. c #AA8579",
"f. c #A3A37A",
"g. c #BFA374",
"h. c #587D84",
"j. c #707784",
"k. c #5C8483",
"l. c #668A85",
"z. c #778C83",
"x. c #6C938A",
"c. c #75958B",
"v. c #639299",
"b. c #64939A",
"n. c #769C94",
"m. c #769E9C",
"M. c #7CA49A",
"N. c #888B84",
"B. c #928F88",
"V. c #879589",
"C. c #999588",
"Z. c #8E9290",
"A. c #989994",
"S. c #AC9389",
"D. c #A79A88",
"F. c #85A79C",
"G. c #99A59A",
"H. c #92AE99",
"J. c #92A89D",
"K. c #AAA788",
"L. c #A7A897",
"P. c #B3AB92",
"I. c #B8B799",
"U. c #87ADA4",
"Y. c #95ADA4",
"T. c #8CB3A8",
"R. c #8CB4AA",
"E. c #98B6AA",
"W. c #9DB5AE",
"Q. c #93BAAE",
"!. c #8FBBB3",
"~. c #95BDB2",
"^. c #99BEB2",
"/. c #A8B5A9",
"(. c #AEB0AD",
"). c #A2BBAE",
"_. c #B8B9A6",
"`. c #ABBAB4",
"'. c #9BC5B9",
"]. c #A7C9BB",
"[. c #B5C6B2",
"{. c #C6CA98",
"}. c #C3C3A6",
"|. c #CACAB9",
" X c #A5CEC2",
".X c #B6CCC8",
"XX c #A8D2C5",
"oX c #AAD6C9",
"OX c #AEDACC",
"+X c #B1DBCD",
"@X c #D2D2C6",
"#X c #D3D4D3",
/* pixels */
"                                                                                                                                ",
"                                                                                                                                ",
"                                                                                                                                ",
"                                                                                                                                ",
"                                                    > . . . . . . . . . . >                                                     ",
"                                              > . . m.v.v.v.v.v.v.v.v.v.v.m.6 . .                                               ",
"                                          a . } =.v 0.C.~. XXXXXXXoXoXoXoXoXv.v.v.. a                                           ",
"                                        > . ` ;.l.r.#.q.R.E.^.'.Y.].oXoXoXOXOXOX'.v.D >                                         ",
"                                    a . u _ ..-.k.c.c.c.c.D.L.G.0.C.'.XXXXoX[.[.[.oXb.^                                         ",
"                                    > G ] *.l.U.Q.Q.Q.U.n.Q.C.0.3.V.Y.]. XXX9.w.S.`.n./                                         ",
"                                    . a ] *.e.M.Q.Q.U.E.G.T.F.c.-.#.7.Y.].E.G._.(.w.Y.m.6 a                                     ",
"                                    . a ] ..-.z.F.'.XXA.9.z.F.Q.M.1.#.e.M.Y.G.K.I.oXoXoXv..                                     ",
"                                      a 4 { w.S.S.`.^.G.a.F.'.'.XXQ.M.=.3.V.9.L.].oX+X].H..                                     ",
"                                        . . v 6.w.S.E.n.-.'.XX+X].+X].w.4.l.D.L.~. X+X].l..                                     ",
"                                    a . u _ ..;.l.T.^.n.-.M.Q.T.F.T.F.T.l.r.Q.M.n.Q.T.v.D >                                     ",
"                                    > . `  .-.-.-.k.c.M.l.[ _ _ 3.*.) [ c.~. XU.n.[ >.m.( a                                     ",
"                                        + [ c.e.>.-.k.z.,...] *.`.n.[ c.T.^.T.^.T...E.^.W..                                     ",
"                                        . [ c.e.>.m.Q.C.%.>.-.;.X.o.,.R.E.A.x.Q.M.=.O.<.H..                                     ",
"                                        . ] *.e.z.p.N.N.N.C.G.K.6.w.d.^.G.q.e.'.Y.7.w.S.E..                                     ",
"                                        > G ] *.-.-.#.N 5.9.w.8.y.D.L.z.F.G.3.^.G.q./.W.J.>                                     ",
"                                          + + + [ ] *.$.5.y.N & b y.D.z 8.g.8.I.K.v V.Y.                                        ",
"                                              > * F ] *.$.z c m & N 8.& N 8.& 8.8.& z.F.                                        ",
"                                          9 + @ 1 5 ] *.x.+.u.I.#.v v v N m & M N m V.Y.                                        ",
"                                        6 . 2 8 8 8 F ] ..l.U.Y.I.K.S.P.{.P.#.K.I.K.2.!.                                        ",
"                                        + + L Z V Z V i ) ;.l.k.R.E.[.[.oX].H.].H.].>                                           ",
"                                    9 + 7 c o.J K E u 8 8 ) [ ] *.1.0.q.e.l.r.l.[ + @                                           ",
"                                    6 @ W #.z J K E u i ) i V Z ) c m N 1.3.E u i H V ;                                         ",
"                                  . * 2 8 L Z U U U V Z 8 8 F S H z c t.I._.Z.&.K 5 ] V                                         ",
"                                  . * i ) i K 5 u 8 8 8 F S u 8 T z j n a.}.#X<.S S S P + @                                     ",
"                                  > * i V T H V * i 4 V E u i H S & j n %.s.#XG.3.K 5 u U .                                     ",
"                              a . * 4 V U U V 4 1 5 8 8 F S u i V % j n 8.y.I.#XG.V Z 8 U .                                     ",
"                              > . . 5 0 S H * i 4 5 0 i V 5 0 i j.Q g k v %.s.A.x.i V 5 U .                                     ",
"                              > * 1 5 8 S H * 4 1 5 0 i K 5 u U _.%.$ l h v I.=.K 5 u U U .                                     ",
"                              > + 1 5 8 S K 5 * i 4 5 V Z ) H V ,.c $ l h v |.=.K 8 8 F S u i                                   ",
"                              > * 1 4 V U Y V , * i 4 5 V S H R K & j k v 8.#X<.0 5 0 i K R *                                   ",
"                              a . * , i V T E 3.,.5 0 i u ,...H E x l h N 1.j.J 7 4 8 8 ) T { B.9                               ",
"                                  > * 1 V Z ) (..X3.Z V 4.I.K.<.S & j m i.p.t 5 0   > + V E Z.@X>                               ",
"                                  6 . 2 =.p.N.G.T.d.q.A.@X@X@XI.=.%.8.y.I.(.V Z 8     9 p.N.G.#XG.;                             ",
"                                    a . { 3.V.N.N.C.f.K.I.K.K.s.@.1.f.K.|.`.i ) i K . a ).=.p.w.0.3.).a                         ",
"                                    > . `  .>.m.G.T.=.o.J o.J o.V Z @.s._.(.t 5 u 8 8     9 u _ q.A.W.9                         ",
"                                    9 + ! [ >.*.-.&.K 0 S i V 5 U B Z o.u.C.G.N.N.1.6       4 { -.} p a                         ",
"                                        9 + ! q 4 V U Y K E S H * V Z 8 U $.P.{.|.|.6       . . ` 4                             ",
"                                          9 + @ * i ] *.e.| Y V V Z 8 U i V o.u.f.K.6         9 + .                             ",
"                                              > + 8 8 @.s.6.O.E U U V 4 V Z 8 U $.X.6                                           ",
"                                              > + 5 0 &./.W.j.J E u i H S V Z 8 U i 6                                           ",
"                                              + * i 4 ' :.h.&.K E u i 8 8 F S u Y E U +                                         ",
"                                            a + + 5 0 i K R R K H V * 5 0 i K R R E U V                                         ",
"                                          + * + 1 * i 4 5 U U T H # + @ * 8 8 ) T E U V                                         ",
"                                          ; * i 4 5 * i 4 ' S H * 4 a . * , 8 8 ) T E V                                         ",
"                                        . @ 1 4 1 5 5 0 2 8 + + L + @ * 8 4 1 5 5 S H *                                         ",
"                                    . @ 1 4 1 5 5 S u 8 ; * . a + + 5 4 1 5 5 S u 8 8 .                                         ",
"                                  4 @ 1 4 5 0 i u u 8 ;       4 @ , * 4 1 5 i V 5 6 a                                           ",
"                                  > * 4 1 5 5 S u 8 7 4       4 @ , * * * 4 V U ;                                               ",
"                                  + * + 4 1 5 5 , * 4 + V     9 + . w w w w w s u 9                                             ",
"                                  . * * * 4 w w w w w s u .   > . . 5 r s f f f d 7 4                                           ",
"                                  . * i w w s f f d f f d .   > @ 1 4 5 r s r s r e 6                                           ",
"                                  > . w w w w r s r e r s .     . . . . > . w . w . 6                                           ",
"                                  > * 1 4 . w . . w . 6 1 4       4 @ , * . . . . > a                                           ",
"                                      . . . . . > . . . . a                                                                     ",
"                                                                                                                                ",
"                                                                                                                                ",
"                                                                                                                                ",
"                                                                                                                                ",
"                                                                                                                                "
};
