/* XPM */
static char *ec6bbba17ff047859818ac9aed48e429iklCyvY7rldmgoFo[] = {
/* columns rows colors chars-per-pixel */
"64 64 154 2 ",
"   c #0B0B0E",
".  c #0E0E11",
"X  c #121215",
"o  c #161618",
"O  c #1A1A1B",
"+  c #1D1D25",
"@  c #202021",
"#  c #25252B",
"$  c #272731",
"%  c #2C2C35",
"&  c #2E2E39",
"*  c #313136",
"=  c #33333C",
"-  c #38383F",
";  c #363641",
":  c #3B3B44",
">  c #3D3D4B",
",  c #3F3F50",
"<  c #414147",
"1  c #43434C",
"2  c #49494E",
"3  c #444454",
"4  c #4B4B55",
"5  c #464659",
"6  c #4B4B5C",
"7  c #515155",
"8  c #52525D",
"9  c #59595C",
"0  c #4E4E61",
"q  c #545464",
"w  c #5A5A65",
"e  c #545469",
"r  c #575768",
"t  c #565669",
"y  c #575769",
"u  c #56566A",
"i  c #57576A",
"p  c #56566B",
"a  c #565669",
"s  c #585868",
"d  c #595968",
"f  c #595969",
"g  c #5A5A68",
"h  c #59596B",
"j  c #5A5A6A",
"k  c #5B5B6A",
"l  c #5A5A6B",
"z  c #5D5D69",
"x  c #5D5D6A",
"c  c #5E5E6A",
"v  c #5E5E6B",
"b  c #58586C",
"n  c #5A5A6C",
"m  c #5B5B6D",
"M  c #58586E",
"N  c #5B5B6E",
"B  c #5C5C6C",
"V  c #5C5C6D",
"C  c #5D5D6D",
"Z  c #5F5F6C",
"A  c #5E5E6D",
"S  c #5C5C6E",
"D  c #5D5D6E",
"F  c #5D5D6F",
"G  c #5E5E6E",
"H  c #5F5F6F",
"J  c #5C5C6B",
"K  c #5B5B70",
"L  c #5E5E71",
"P  c #5F5F71",
"I  c #5F5F70",
"U  c #616167",
"Y  c #60606D",
"T  c #60606E",
"R  c #61616E",
"E  c #60606F",
"W  c #61616F",
"Q  c #62626F",
"!  c #63636F",
"~  c #62626D",
"^  c #6A6A6F",
"/  c #606070",
"(  c #616170",
")  c #626270",
"_  c #636370",
"`  c #626271",
"'  c #636371",
"]  c #616172",
"[  c #616173",
"{  c #636372",
"}  c #636373",
"|  c #656570",
" . c #646471",
".. c #676770",
"X. c #656572",
"o. c #656573",
"O. c #676773",
"+. c #656574",
"@. c #646475",
"#. c #676775",
"$. c #646476",
"%. c #646472",
"&. c #696974",
"*. c #686876",
"=. c #696977",
"-. c #6A6A76",
";. c #6B6B76",
":. c #6D6D77",
">. c #6A6A75",
",. c #666679",
"<. c #696978",
"1. c #6A6A78",
"2. c #6B6B79",
"3. c #6F6F7B",
"4. c #6E6E7C",
"5. c #6F6F7C",
"6. c #6D6D7A",
"7. c #727276",
"8. c #72727D",
"9. c #71717F",
"0. c #75757E",
"q. c #76767F",
"w. c #72727D",
"e. c #7A7A7D",
"r. c #757581",
"t. c #767681",
"y. c #747482",
"u. c #767681",
"i. c #7A7A83",
"p. c #7A7A85",
"a. c #7C7C86",
"s. c #7B7B84",
"d. c #7E7E89",
"f. c #808087",
"g. c #83838B",
"h. c #83838C",
"j. c #85858C",
"k. c #85858F",
"l. c #86868F",
"z. c #83838B",
"x. c #88888F",
"c. c #89898E",
"v. c #868690",
"b. c #8A8A93",
"n. c #8D8D95",
"m. c #8C8C92",
"M. c #8E8E98",
"N. c #919196",
"B. c #94949A",
"V. c #99999D",
"C. c #9D9DA2",
"Z. c #A1A1A5",
"A. c #A5A5A8",
"S. c #A8A8AD",
/* pixels */
"% < = = : ; = = : : : < 4 7 7 2 4 4 7 1 = = = : : ; = = & & $ X + = $ & = & = % & = : < = = = = = = = & = - : - : : < : : ; = o ",
"> [ q F e h F h F [ [ F 8.k.n.g.b.k.a.q 6 3 q h F F e b r 0 , X & b 5 0 K b r 0 0 e L $.e e h K e L b r h [  .c F *.*.5.[ F 1 X ",
"= e 6 q 3 q h 6 6 8 6 6 h Y i.x.k.0.c : 3 3 6 q r q 6 r 6 6 3 . & 0 3 6 e r 6 3 3 q e e q 0 h q e F q h F q 8 s t.*.q Y Y F > X ",
"& e e 5 3 e q Y  .c Y [ e [ t.:. .*.5 : 3 3 6 e h 5 6 3 5 5 :   $ 0 6 0 r q 3 3 0 h F e q q q q q 5 6 e h s Y 3.p.*.Y Y Y h > X ",
"= q q 0 6 e Y  .c c F 2.[ F 2. .8.4 : e 8 5 3 6 6 6 6 5 3 6 : . $ 6 6 6 r e 5 5 0 $.F q 6 3 3 3 6 3 5 e s [ t.h.0.*.Y  .Y F > X ",
": r 8 q q r 3.[  . .s F [ h q F s 1 6 6 h  .e Y [ q q > , 0 : X $ 6 5 6 6 6 6 6 0 F F 0 3 3 6 q 5 > q h [ $.3. .s s s 5.2.[ > X ",
"> e 5 5 q Y  .8.0.Y Y  .2.e e h 3 e 6 3 e q :.d.h.8.8.[ e 6 : . $ 5 , 5 0 3 , 6 0 q q q 6 s c 2.c q F h s [ q 6 Y 8 *.*.e h > X ",
"& 0 6 3 6 Y  .i.0.O.t.a. .6 q q 5 6 3 5 6 s 8.t.i.8.t.p.d.b > . % r q e b 6 3 e F 6 q s  .3.3.g.3.[ F F Y F q  .3.q 3. .c h : X ",
"& e e 5 6 q 2.0.i.t.0.8.3.e 6 6 3 6 3 5 h 8.8.i.t.8.3.8.i.e > . % @.h e e e q h c e e s *.i.g.i.0.Y 8 F  .F e *. .q  .c F h : X ",
"% q 3 3 e Y *.t.3.*.0.a.a.8.3.i.5.6 6 F t. .! 3.3.8.3.3.:. .1   = [ Y r 6 q h e s b q s 3.0.i.a.Y  .*.$. .s s s 5 $.Y Y c h : X ",
"$ 3 0 h F Y *.a.0.a.p.i.:.3.0.h.k.6 h  .8.c 3.*.*.*.3.8.:.p.4   : y.:.c e q e e q h F h 3.*.8.a.8.8.! s s Y 8.8.t.$.c *.h e > . ",
"$ 6 q h e  .3.:.t.3.0.i.i.p.i.*.i.3.c Y :. .8. .Y 8.8.a.N.b.~ o 2 d. .8.8.Y c 0 5 3 6 6 *.i.a.b.B.f.8.0.s.*.3.0.3. .8.*.c F 3 . ",
"= e h F s F 8.*.8.:.8.g.8.O.O.:.8. .Y Y t.O.! 3.8.8. .n.j.8.w . < i.*.8.3. .[ 6 > 3 q 8 s O.a.k.f.0.0.j.x.0.p.i.O.8.8. .s F 3 X ",
"= e [ [ e *.i.p.t.0.g.0. .8.t.Y Y  .Y t.8.8.8.i.s.8.a.B.f.d.8   = h.i.p.8.2.$.h 3 r h e q 5 O.t.8.t.! w i.k.k.g.3.3.3.[ F $.3 X ",
"= 3 3 3 3 8 w U z c Y 7 7 8 w : 4 s 7 z w z w w Y Y ~ >.>.Y 7 . : ! Y Y 8 6 7 > : 3 > 1 1 ; 1 7 8 w 1 1 5 Y ! Y Y z s 5 5 6 : o ",
"X       X X X X X o X X     . O O X X X o o o o o X o O o X O   o O o o X X X       . X     . O O   .   X o o X o o X . . . .   ",
"$ $ = = = : < 1 : < 1 < < 1 2 O # : = : : = = : : 2 4 4 : : - $ % - : < < = = % % & % % = $ $ o # = = & * : 4 2 1 : : : = : % $ ",
"h $.5.L L 5.t.d.h.d.a.a.t.5.8 X * h h [ *. .8.8.0.k.k.g. .q q 8 b h F p.3.Y [ [ r e 6 F @.b 3 . : *.e q h 5.a.g.8.d.d.y. .[ F h ",
"*. .Y q q  .*.t.t.i.8.3.c q >   % b q q c  .0.0.p.i.Y  .z 1 6 F q e 8 :.:.Y c 6 3 3 6 [ s e ; . = 8 3 6 q h 3.8.p.:.s *. .Y h [ ",
"c s h e q  .p.0.8.p.0.0.c h 1   % L e c F Y *.8.g.i.*. . .s h e 6 e e 3.i.F h 3 5 3 e F s 3 : . % F q q e q s  .z 8 q e q 5 q  .",
"q q s s q t.8.a.0.i.i. .Y F : . = @.e h h 8 ! b.0.8.i.8.3. .Y q q q  .p.i.Y h 6 6 6 q q q q :   : h 6 3 3 8 h 8 c c e q 8 8 F c ",
"F $. .[ *.3.i.d.:.8.*.:.$.F 3 X = [ q F c 6 *.f.*.F Y c :.Y z q [ 8.a.d.8.s q 6 3 0 e e 8 e > . % e 6 6 8 8 q 3.3.*.c q q Y e e ",
"h  . .Y $.8.t.d.p.0. .3.3.s 1 X = $.h q e s *.*.c 6 3 : q q F 5 8.a.:.8.8.Y e h e Y $.[ 8 q :   $ 6 6 c t.s.b.n.j.k.b.a.t.c 6 e ",
"[ *.8.8.2.3.t.0.a.8.O.*. .s 3 X = 2.e 6 0 6 *.*.6 6 3 5 3 > 6 3.g.0.8.O.0.8.0.t.a.k.*.q 8 6 =   # q 6 e *.s.m.N.m.B.B.x.a.a.3.6 ",
"i.g.p.t.8.t.p.h.t.:.3.8.Y h 5   =  .h 6 6 6 Y Y 6 6 5 5 3 6 6 3.i.3.8.*.*.a.a.k.B.x.0.8.*.h 5 X : $.h Y 8.g.B.C.V.V.B.N.x.g.a.8.",
"d.g.3.8.3.3.t.0.t.t.8.3.c q > . = b F 6 q q c q 3.5.6 3 > 6 F *. .*.0.8.O.0.a.a.g.N.N.x.m.m.7.O 9 n.k.a.k.A.C.B.Z.V.m.m.m.b.j.g.",
"n.a.8.3.*.8.i. .8.a.i.:.c e 3 . = e e [  .$.q c h.O.0 e q  .p.p.8.i.0.t.c 8.g.a.b.V.N.c.N.C.e.O 7 V.m.C.Z.A.C.C.V.N.m.m.m.N.k.x.",
"i.a.g.a.a.t.8.8.t.i.a.d.! h 3 . % h e s h Y 3.*.Y 6 6 Y Y  .8.3.i.0.0.t.t.a.a.a.N.m.m.c.m.V.s.O 7 Z.V.C.V.B.n.j.j.j.g.B.N.j.m.k.",
":.k.i.i.i.a.O.8.0.8.p.0.$.$.3   & b e $.*.Y s 6 q y.:.6 6  .*.t.i.p.a.0.0.0.s.b.b.3.8.x.n.C.e.o 7 V.m.N.n.N.3.! 8.8.f.N.N.k.k.k.",
"C.x.i.g.p.0.8. .*.d.t.O.*.[ 3 . & b h 2.8. . .c 2.F 6 6 3 r [ p.g.p.8.3. .3.8.Y q 6  .k.x.b.O.o 7 S.B.C.B.g.2.c 3.d.B.B.a.x.n.b.",
">.~ ~ ~ Y U z w q ! z 8 4 3 : X = 6 1 8 8 5 5 s s & ; > > 3 6 c Y ! 1 1 8 6 : : > 6 6 q c 7 : X < >.^ 0.^ w q 1 7 Y O.~ z O.7.^ ",
"o O o X X o o X X o o X . X X   . .   . X X X X     X X X . o O O o   X X X X   . o X X     X   X X O X X O o X . o o X o o O O ",
"% 1 2 2 2 1 < : : 1 : < : % % = = : = = - : $ $ $ $ $ = : % : O # $ = : < : = # = < < : 1 < = < : = : : 1 < < % % < : 4 < 4 2 o ",
": g.N.B.k.k.k.p.g.p.p.t.$.h h b ,.2.F [ 2.[ b h q q 0 b h e q o * r *.*.t.8.[ h t.3.t.8.g.p.8.b.t.*.8.*.p.8.Y e 6 F 5.p.d.h.w X ",
"= h ! n.m.j.0.*.c *.8.*.Y q 6 e F h e F [ F e 6 6 e 6 6 3 e >   = [ 8 e *.t.O.[ h c *.3.Y Y 3.8.z c $.Y h s 6 q 6 1 Y 8.i.3.1 X ",
"= c c  .O.*.8.i.*.Y 8.8.c h h e h e e  .$.6 3 6 0 q 0 6 6 6 : . = F c 2.Y *.:.c 6 s *.8. .F *.q F  .8.$.s q $.Y q 3  .b.8.Y > X ",
"= h h e Y 8.8.>.8.*.0.8.Y 8 q e h s q [ F 6 6 6 6 b 0 6 0 e 3 . = F [ Y c t.i.O.:.F  .8. .2. .c c  .t.*.s *.3.$.[ 3 [ d.8.s : X ",
"= r 6 s  .:.k.g.0.t.3.Y Y q 6 e 8 s [ $.[ 6 6 0 6 6 6 0 e 0 1 X = F 8 q Y d.g.g.x.*.*.:. .5. . .*.3.8.O.Y t.*.Y h 0 6  .! F 3 X ",
"$ e q Y *.p.g.f.m.a.a.8. .c 6 s q h F F q 3 q 0 6 0 3 6 6 0 >   % $.Y  .3.d.a.g.j.Y Y *. . .Y *.p.0.8.*.t.y.*.8 q h q e q q 1 X ",
"$ q q  .8.k.k.p.j.f.k.N.s.6 s 6 e Y F 0 6 6 6 6 0 6 3 e e r 1 . ; @.q e s 3.0.j.b.Y c *. .Y Y k.g.c :.p.p.*.F 6 6 F F q 6 h > X ",
"& 0 q [ 8.g.k.i.a.j.g.i.s.a.3.8 q s h q 6 q 0 5 3 3 e r 0 0 3 X = e 6 6 6 s 8.k.m.q z *.3.O.O.0.8.8.8.:.3.*.h h h F [ s r b > . ",
"& 0 e 3.8.g.j.e.g.k.k.a.b.g.*.*.6 e e 6 6 q e 6 5 5 6 0 6 0 5 X & r 3 e [  .! a.0.5 Y 8.:. .2.s c 8.8.Y  .t.*.$.F F F F h e 1 . ",
"& e [ $.c i.g.i.x.x.N.x.b.f.8.z w s q 6 6 6 s $.L e 6 e 0 e 3 . = e r $. .*.s 8 5 q Y 3.Y *.*.s Y Y :. .*.t.h e s c e q r [ > . ",
"; [ q q 6 8.m.0.f.k.n.m.n.N.:.Y Y Y  .6 3 e [ 2.3.F r q e r 1 . $ h F q e s q 3 3 s  .Y 0.d.5.e c [ *. . . .q q F F 6 e [ @.> . ",
": h 6 6 q :.k.f.0.f.N.j.f.N.x.g.i.i.s.s c $. .[ Y c e 0 3 0 > . & r 6 6 3 6 6 3 8 q s *.a.t.3.s Y  . . .*.Y h e h q e h F F 1 X ",
": F q q e a.N.j.f.n.k.V.m.m.N.m.g.N.m.k.b.t. .Y *.F h q 6 e 3 . $ 0 e e e [ [ s Y *.*.k.k.a. .$.[ c  .p.p.t.8.Y [ Y c h e F 3 X ",
"= 5 < 5 6 w >.Y ! ~ z s.e.>.^ ~ O.>.! :.~ z 8 6 6 6 3 3 3 3 : . & 6 > 3 5 6 w 8 w 8 Y ^ ! ~ 8 4 6 4 8 8 8 z 6 > 3 5 5 1 3 6 > o ",
". . . X o   . o O X o O O O O O @ X X X X o o o X X . . . .     .     . X X X X o o X o O o . O O X X X X X X         . . . X   ",
"$ % = = # % = : < 4 7 1 2 4 7 O * 7 < 1 1 1 1 < < = = = & $ $ $ $ $ & : : = = = : < 2 4 < < 2 O * 7 7 4 : = = = = = % & = = % $ ",
"0 h h F F b [ [ d.k.k.n.B.B.s.O 9 B.i.k.a.v.k.d.t.2.L @.r 5 0 0 6 e e 2.c c y.y.8.i.M.0.! b.8.O 7 C.C.b.8.Y  .2.$.@.h h 2.F e 6 ",
"6 6 q F e 6 q 6 F Y 3.f.m.a.w o 1 i.i.g.0.i.g.i. .[ h h 6 5 5 5 3 6 q h 6 F  . .8.p.*. .*.d.^ O 7 A.N.g.:.q F Y s 8 6 e $.e 6 3 ",
"6 3 6 6 6 q 6 6 6 q O.8.k.7.7 X < g.a.a.i.0.g.3.!  .F e 0 6 6 0 6 6 h q h s h t.t.z c :.O.a.7.o 9 Z.N.B.:.q h F c q F y. .6 3 6 ",
"3 3 6 h h q q q 6 6 F t.3.z 7 o : k.g.k.8.a.g. .*.[ q 6 0 5 0 6 5 6 q e F q F 8.s e $.c ! g.>.O 9 C.N.b.0.F q Y s 8 Y *.s q 6 6 ",
"e c F e 6 q F b e e F c s 0.w o 2 g.j.i. .a.k.i.8.[ F q 5 5 0 6 5 6 6 e 6 e F r e h Y  .O.b.0.O 7 V.b.x.j.8.q h q q *. .s h F 6 ",
"2.Y  .s q F Y e F c c 2.t.8.9 . 2 v.8.8.8.a.a.a.i.[ F 6 5 0 0 5 3 6 e e 0 F q 6 r 8 c *.i.N.0.o 2 n.b.N.n.8.q s q h *.Y e [ [ c ",
" .e s s e 5.$.e q F Y h 8 c 7 X : a.a.0.i.i.8.8.3.3.e 6 3 0 0 6 5 6 q s h F 6 6 6 6 F t.k.V.0.O 7 B.x.N.m.8.6 F c c 3.Y h $.[  .",
"$.q e F F Y $.h q Y [ q 6 q 4 o : d.0.g.d.p.g.d.3. .e 6 5 6 6 5 5 3 0 e e q e e 6 6 [ [ 3.k.! O 2 N.j.N.N.O.q s e 8 *. .$.$.c $.",
"[ F c e 8 8 8 q r F q 6 e *.w X < i.i.h.i.p.b.i.Y e s r 3 3 5 3 3 6 0 e 0 0 e q 3 e e e q h 5 O < g.a.m.m.g.s 8 q s Y s 2.F F  .",
"8 e 6 6 6 q e [ F h F q c t.s X < p.i.d.i.0.i.s 8 q h e 6 q 0 5 6 0 q 6 0 b e 3 6 e e 6 e 6 1 X = *.O.k.x.a.0.c h 8.Y [ $.F r q ",
"5 3 6 6 5 r h e 6 6 [ F F 8.s X < a.:.i.i.! Y h 6 q e q b r 0 6 6 5 6 6 6 e 6 6 q 0 q e h e > . % 5.*.c 0.i.a.p.3.3.Y 3.3. .e 3 ",
"6 q e 6 6 L q 6 6 h $. .Y 3.z o 4 g.3.t.0.*.3.*.[ F h h q q 6 5 0 3 5 0 6 6 5 6 3 q 0 F h q 3 . % F c c c :.3.8.:. .8.3. .h 6 > ",
"F 6 q q h F r e e F [ p.p.t.O.o 7 n.t.p.8.2.$.$. .e e b b 6 6 0 0 5 0 0 e 0 6 6 6 e L h q b 3   $ b 6 $.*.:.0.*.O.3.8.$.s e 6 e ",
"4 1 > 3 5 3 3 3 1 1 5 w c z 9 O < O.Y z w 6 3 3 5 3 > 3 1 : ; : : : : : > > > : ; > 8 q > 3 : . % 3 > 3 5 8 8 w 9 4 6 5 4 1 3 6 ",
"X o X o X X X X X X o o O O @ o O O O O O o X o o X X X X . . X X . . . X X X X X X O O X X o . o X o X X X o O O o O o O X X X "
};
